<svg width="200" height="200" viewBox="0 0 200 200" fill="none" xmlns="http://www.w3.org/2000/svg">
<path d="M114.571 83.9746V88.5449H101.622L101.495 125.107C101.495 128.324 101.77 130.757 102.32 132.407C103.336 135.327 105.325 136.787 108.287 136.787C109.811 136.787 111.122 136.427 112.223 135.708C113.365 134.989 114.656 133.846 116.095 132.28L117.745 133.677L116.349 135.581C114.148 138.543 111.821 140.638 109.366 141.865C106.912 143.092 104.542 143.706 102.257 143.706C97.2633 143.706 93.8779 141.484 92.1006 137.041C91.1273 134.629 90.6406 131.286 90.6406 127.012V88.5449H83.7217C83.5101 88.418 83.3408 88.291 83.2139 88.1641C83.1292 88.0371 83.0869 87.8678 83.0869 87.6562C83.0869 87.2331 83.1715 86.9157 83.3408 86.7041C83.5524 86.4502 84.166 85.9001 85.1816 85.0537C88.1016 82.6416 90.1963 80.695 91.4658 79.2139C92.7777 77.6904 95.8245 73.7126 100.606 67.2803C101.157 67.2803 101.474 67.3226 101.559 67.4072C101.686 67.4919 101.749 67.8092 101.749 68.3594V83.9746H114.571Z" fill="#5E81AC"/>
</svg>
