<svg width="643" height="230" viewBox="0 0 643 230" fill="none" xmlns="http://www.w3.org/2000/svg">
<path d="M229.465 12.6C229.465 13.0267 229.358 13.7733 229.145 14.84C229.038 15.9067 228.878 17.08 228.665 18.36C228.558 19.64 228.398 20.92 228.185 22.2C228.078 23.48 228.025 24.44 228.025 25.08C227.812 25.2933 227.545 25.4 227.225 25.4C227.012 25.4 226.798 25.2933 226.585 25.08C226.798 24.2267 226.905 23.48 226.905 22.84C227.012 22.2 227.065 21.56 227.065 20.92C227.065 18.7867 226.158 17.1333 224.345 15.96C222.638 14.7867 220.185 14.2 216.985 14.2C214.745 14.2 212.398 14.5733 209.945 15.32C207.598 16.0667 205.145 17.4 202.585 19.32C200.132 21.24 197.518 23.8 194.745 27C192.078 30.2 189.305 34.2533 186.425 39.16C184.825 41.9333 182.852 45.5067 180.505 49.88C178.158 54.2533 175.652 58.9467 172.985 63.96C170.318 68.8667 167.652 73.9333 164.985 79.16C162.318 84.28 159.865 89.08 157.625 93.56C158.585 93.56 160.185 93.56 162.425 93.56C164.665 93.4533 166.958 93.4 169.305 93.4C171.652 93.4 173.785 93.4 175.705 93.4C177.732 93.4 179.065 93.4 179.705 93.4C180.238 93.72 180.398 94.2533 180.185 95C179.758 95 178.692 95 176.985 95C175.278 95 173.252 95.0533 170.905 95.16C168.558 95.16 166.105 95.2133 163.545 95.32C161.092 95.32 158.852 95.32 156.825 95.32C153.305 102.147 149.572 109.027 145.625 115.96C141.785 122.787 137.892 129.4 133.945 135.8C130.105 142.2 126.265 148.12 122.425 153.56C118.692 159.107 115.225 163.96 112.025 168.12C104.025 178.36 96.4517 187 89.305 194.04C82.0517 201.187 75.1717 206.947 68.665 211.32C62.1583 215.8 56.0783 219 50.425 220.92C44.665 222.947 39.225 223.96 34.105 223.96C32.6117 223.96 31.0117 223.8 29.305 223.48C27.4917 223.16 25.785 222.52 24.185 221.56C22.4783 220.6 20.985 219.213 19.705 217.4C18.425 215.693 17.465 213.4 16.825 210.52C16.825 209.667 16.9317 209.293 17.145 209.4C17.3583 209.507 17.5717 209.827 17.785 210.36C17.8917 211.107 18.3183 212.067 19.065 213.24C19.8117 214.52 20.9317 215.747 22.425 216.92C23.8117 218.093 25.5717 219.053 27.705 219.8C29.8383 220.653 32.3983 221.08 35.385 221.08C40.185 220.973 45.4117 220.067 51.065 218.36C56.6117 216.76 62.4783 213.88 68.665 209.72C74.8517 205.56 81.3583 199.96 88.185 192.92C94.905 185.987 101.892 177.187 109.145 166.52C112.985 160.867 116.825 154.787 120.665 148.28C124.398 141.88 128.025 135.48 131.545 129.08C135.172 122.787 138.532 116.707 141.625 110.84C144.825 104.973 147.705 99.8533 150.265 95.48C145.678 95.8 142.052 96.12 139.385 96.44C136.718 96.76 134.585 97.2933 132.985 98.04C131.385 98.68 130.105 99.6933 129.145 101.08C128.292 102.36 127.278 104.173 126.105 106.52L125.625 106.36C127.118 102.84 128.612 100.227 130.105 98.52C131.598 96.7067 132.985 95.5867 134.265 95.16C135.118 94.9467 136.238 94.7333 137.625 94.52C139.118 94.3067 140.665 94.1467 142.265 94.04C143.972 93.9333 145.625 93.8267 147.225 93.72C148.825 93.6133 150.212 93.56 151.385 93.56C156.718 83.7467 161.838 74.68 166.745 66.36C171.758 57.9333 176.932 49.72 182.265 41.72C185.145 37.3467 188.238 33.1333 191.545 29.08C194.852 24.92 198.212 21.2933 201.625 18.2C205.038 15 208.398 12.4933 211.705 10.68C215.118 8.76 218.372 7.8 221.465 7.8C223.598 7.8 225.465 8.28 227.065 9.24001C228.665 10.2 229.465 11.32 229.465 12.6Z" fill="#5E81AC"/>
<path d="M74.348 187.5V55.644H79.268V187.5H74.348ZM52.7 187.5V55.644H57.62V187.5H52.7ZM63.524 187.5V55.644H68.444V187.5H63.524ZM85.172 60.564V55.644H150.608V60.564H85.172ZM85.172 71.388V66.468H150.608V71.388H85.172ZM85.172 82.212V77.292H150.608V82.212H85.172ZM85.172 113.208V108.288H141.26V113.208H85.172ZM85.172 124.032V119.112H141.26V124.032H85.172ZM85.172 134.856V129.936H141.26V134.856H85.172Z" fill="#5E81AC"/>
<path d="M210.176 153.036C210.176 147.351 208.809 142.321 206.076 137.948C203.452 133.465 199.789 129.912 195.088 127.288C190.496 124.664 185.303 123.352 179.508 123.352C173.713 123.352 168.465 124.664 163.764 127.288C159.172 129.912 155.509 133.465 152.776 137.948C150.152 142.321 148.84 147.351 148.84 153.036C148.84 158.612 150.152 163.641 152.776 168.124C155.509 172.607 159.172 176.16 163.764 178.784C168.465 181.408 173.713 182.72 179.508 182.72C185.303 182.72 190.496 181.408 195.088 178.784C199.789 176.16 203.452 172.607 206.076 168.124C208.809 163.641 210.176 158.612 210.176 153.036ZM199.352 153.036C199.352 147.569 197.439 143.087 193.612 139.588C189.895 135.98 185.193 134.176 179.508 134.176C173.823 134.176 169.067 135.98 165.24 139.588C161.523 143.087 159.664 147.569 159.664 153.036C159.664 158.393 161.523 162.876 165.24 166.484C169.067 170.092 173.823 171.896 179.508 171.896C185.193 171.896 189.895 170.092 193.612 166.484C197.439 162.876 199.352 158.393 199.352 153.036ZM179.508 176.816C174.807 176.816 170.597 175.777 166.88 173.7C163.163 171.623 160.211 168.78 158.024 165.172C155.837 161.564 154.744 157.519 154.744 153.036C154.744 148.553 155.837 144.508 158.024 140.9C160.211 137.292 163.163 134.449 166.88 132.372C170.597 130.295 174.807 129.256 179.508 129.256C184.209 129.256 188.419 130.295 192.136 132.372C195.853 134.449 198.805 137.292 200.992 140.9C203.179 144.508 204.272 148.553 204.272 153.036C204.272 157.519 203.179 161.564 200.992 165.172C198.805 168.78 195.853 171.623 192.136 173.7C188.419 175.777 184.209 176.816 179.508 176.816ZM179.508 187.64C172.839 187.64 166.825 186.109 161.468 183.048C156.111 179.987 151.847 175.832 148.676 170.584C145.505 165.336 143.92 159.487 143.92 153.036C143.92 146.476 145.505 140.627 148.676 135.488C151.847 130.24 156.111 126.085 161.468 123.024C166.825 119.963 172.839 118.432 179.508 118.432C186.177 118.432 192.191 119.963 197.548 123.024C202.905 126.085 207.169 130.24 210.34 135.488C213.511 140.627 215.096 146.476 215.096 153.036C215.096 159.487 213.511 165.336 210.34 170.584C207.169 175.832 202.905 179.987 197.548 183.048C192.191 186.109 186.177 187.64 179.508 187.64ZM226.599 186V120.072H231.519V186H226.599ZM281.375 186V120.072H286.295V186H281.375ZM270.551 167.632L242.343 128.436V138.44L270.551 177.636V167.632ZM237.423 186V120.072H242.343L270.551 159.268V120.072H275.471V186H270.551L242.343 146.804V186H237.423ZM294.55 124.992V120.072H348.506V124.992H294.55ZM313.574 186V135.816H294.55V130.896H348.506V135.816H329.318V186H324.398V135.816H318.494V186H313.574ZM367.47 186V120.072H406.666V124.992H372.39V130.896H406.666V135.816H372.39V145.164H401.418V150.084H372.39V155.988H401.418V160.908H372.39V170.256H406.666V175.176H372.39V181.08H406.666V186H367.47ZM356.646 186V120.072H361.566V186H356.646ZM427.048 186V120.072H431.968V170.256H461.324V175.176H431.968V181.08H461.324V186H427.048ZM416.224 186V120.072H421.144V186H416.224ZM481.181 186V120.072H486.101V186H481.181ZM470.357 186V120.072H475.277V186H470.357ZM510.009 186V120.072H549.205V124.992H514.929V130.896H549.205V135.816H514.929V145.164H543.957V150.084H514.929V155.988H543.957V160.908H514.929V170.256H549.205V175.176H514.929V181.08H549.205V186H510.009ZM499.185 186V120.072H504.105V186H499.185ZM569.587 186V120.072H595.335C600.692 120.181 605.284 122.04 609.111 125.648C612.938 129.147 614.851 134.012 614.851 140.244C614.851 145.055 613.648 149.1 611.243 152.38C608.947 155.66 605.94 157.956 602.223 159.268L613.703 186H608.291L597.467 160.252C596.592 160.361 595.882 160.416 595.335 160.416H591.071L601.895 186H596.483L585.659 160.416H574.507V186H569.587ZM558.763 186V120.072H563.683V186H558.763ZM595.007 124.992H574.507V130.896H595.335C597.959 131.005 600.036 131.935 601.567 133.684C603.207 135.324 604.027 137.511 604.027 140.244C604.027 142.977 603.207 145.219 601.567 146.968C599.927 148.717 597.85 149.592 595.335 149.592H574.507V155.496H595.007C599.162 155.496 602.66 154.239 605.503 151.724C608.455 149.1 609.931 145.273 609.931 140.244C609.931 135.215 608.455 131.443 605.503 128.928C602.66 126.304 599.162 124.992 595.007 124.992ZM595.007 135.816H574.507V144.672H595.007C596.21 144.672 597.194 144.344 597.959 143.688C598.724 142.923 599.107 141.775 599.107 140.244C599.107 138.713 598.724 137.62 597.959 136.964C597.194 136.199 596.21 135.816 595.007 135.816Z" fill="#5E81AC"/>
</svg>
