<svg width="230" height="230" viewBox="0 0 230 230" fill="none" xmlns="http://www.w3.org/2000/svg">
<g clip-path="url(#clip0_256_417)">
<path d="M214.465 12.6C214.465 13.0267 214.358 13.7733 214.145 14.84C214.038 15.9067 213.878 17.08 213.665 18.36C213.558 19.64 213.398 20.92 213.185 22.2C213.078 23.48 213.025 24.44 213.025 25.08C212.812 25.2933 212.545 25.4 212.225 25.4C212.012 25.4 211.798 25.2933 211.585 25.08C211.798 24.2267 211.905 23.48 211.905 22.84C212.012 22.2 212.065 21.56 212.065 20.92C212.065 18.7867 211.158 17.1333 209.345 15.96C207.638 14.7867 205.185 14.2 201.985 14.2C199.745 14.2 197.398 14.5733 194.945 15.32C192.598 16.0667 190.145 17.4 187.585 19.32C185.132 21.24 182.518 23.8 179.745 27C177.078 30.2 174.305 34.2533 171.425 39.16C169.825 41.9333 167.852 45.5067 165.505 49.88C163.158 54.2533 160.652 58.9467 157.985 63.96C155.318 68.8667 152.652 73.9333 149.985 79.16C147.318 84.28 144.865 89.08 142.625 93.56C143.585 93.56 145.185 93.56 147.425 93.56C149.665 93.4533 151.958 93.4 154.305 93.4C156.652 93.4 158.785 93.4 160.705 93.4C162.732 93.4 164.065 93.4 164.705 93.4C165.238 93.72 165.398 94.2533 165.185 95C164.758 95 163.692 95 161.985 95C160.278 95 158.252 95.0533 155.905 95.16C153.558 95.16 151.105 95.2133 148.545 95.32C146.092 95.32 143.852 95.32 141.825 95.32C138.305 102.147 134.572 109.027 130.625 115.96C126.785 122.787 122.892 129.4 118.945 135.8C115.105 142.2 111.265 148.12 107.425 153.56C103.692 159.107 100.225 163.96 97.025 168.12C89.025 178.36 81.4517 187 74.305 194.04C67.0517 201.187 60.1717 206.947 53.665 211.32C47.1583 215.8 41.0783 219 35.425 220.92C29.665 222.947 24.225 223.96 19.105 223.96C17.6117 223.96 16.0117 223.8 14.305 223.48C12.4917 223.16 10.785 222.52 9.18501 221.56C7.47834 220.6 5.985 219.213 4.705 217.4C3.425 215.693 2.465 213.4 1.825 210.52C1.825 209.667 1.93167 209.293 2.145 209.4C2.35834 209.507 2.57167 209.827 2.785 210.36C2.89167 211.107 3.31833 212.067 4.065 213.24C4.81167 214.52 5.93167 215.747 7.425 216.92C8.81167 218.093 10.5717 219.053 12.705 219.8C14.8383 220.653 17.3983 221.08 20.385 221.08C25.185 220.973 30.4117 220.067 36.065 218.36C41.6117 216.76 47.4783 213.88 53.665 209.72C59.8517 205.56 66.3583 199.96 73.185 192.92C79.905 185.987 86.8917 177.187 94.145 166.52C97.985 160.867 101.825 154.787 105.665 148.28C109.398 141.88 113.025 135.48 116.545 129.08C120.172 122.787 123.532 116.707 126.625 110.84C129.825 104.973 132.705 99.8533 135.265 95.48C130.678 95.8 127.052 96.12 124.385 96.44C121.718 96.76 119.585 97.2933 117.985 98.04C116.385 98.68 115.105 99.6933 114.145 101.08C113.292 102.36 112.278 104.173 111.105 106.52L110.625 106.36C112.118 102.84 113.612 100.227 115.105 98.52C116.598 96.7067 117.985 95.5867 119.265 95.16C120.118 94.9467 121.238 94.7333 122.625 94.52C124.118 94.3067 125.665 94.1467 127.265 94.04C128.972 93.9333 130.625 93.8267 132.225 93.72C133.825 93.6133 135.212 93.56 136.385 93.56C141.718 83.7467 146.838 74.68 151.745 66.36C156.758 57.9333 161.932 49.72 167.265 41.72C170.145 37.3467 173.238 33.1333 176.545 29.08C179.852 24.92 183.212 21.2933 186.625 18.2C190.038 15 193.398 12.4933 196.705 10.68C200.118 8.76 203.372 7.8 206.465 7.8C208.598 7.8 210.465 8.28 212.065 9.24001C213.665 10.2 214.465 11.32 214.465 12.6Z" fill="#5E81AC"/>
<path d="M59.348 178V46.144H64.268V178H59.348ZM37.7 178V46.144H42.62V178H37.7ZM48.524 178V46.144H53.444V178H48.524ZM70.172 51.064V46.144H135.608V51.064H70.172ZM70.172 61.888V56.968H135.608V61.888H70.172ZM70.172 72.712V67.792H135.608V72.712H70.172ZM70.172 103.708V98.788H126.26V103.708H70.172ZM70.172 114.532V109.612H126.26V114.532H70.172ZM70.172 125.356V120.436H126.26V125.356H70.172Z" fill="#5E81AC"/>
</g>
<defs>
<clipPath id="clip0_256_417">
<rect width="230" height="230" fill="white"/>
</clipPath>
</defs>
</svg>
