<svg width="196" height="128" viewBox="0 0 196 128" fill="none" xmlns="http://www.w3.org/2000/svg">
<mask id="mask0_232_199" style="mask-type:luminance" maskUnits="userSpaceOnUse" x="47" y="0" width="149" height="128">
<path d="M47.1094 0.0644531H195.097V127.548H47.1094V0.0644531Z" fill="white"/>
</mask>
<g mask="url(#mask0_232_199)">
<path d="M189.14 119.75C186.963 119.281 185.048 118.569 183.4 117.63C181.217 116.334 179.535 114.952 178.357 113.515C177.172 112.06 176.208 110.464 175.436 108.679C170.836 97.8161 165.269 84.1216 158.725 67.5828C152.174 51.044 143.121 28.5389 131.565 0.0644531H113.877C105.565 20.153 97.9706 38.5177 91.1105 55.1683C84.2409 71.822 77.3872 88.4566 70.5495 105.05C69.4323 107.881 68.0309 110.342 66.3486 112.405C64.6695 114.476 62.6201 116.213 60.2068 117.63C58.7894 118.521 56.8582 119.213 54.4161 119.718C51.9709 120.213 49.7747 120.529 47.8242 120.65V127.548H99.3017V120.644C92.6396 120.053 87.8704 119.099 85.0166 117.758C82.15 116.436 80.7231 114.818 80.7231 112.934C80.7231 112.344 80.8252 111.31 81.0391 109.825C81.2338 108.357 81.901 105.963 83.0279 102.662C83.9121 100.118 84.9559 97.2192 86.169 93.9727C87.1011 91.4828 87.9438 89.2961 88.7483 87.2882H133.564L143.514 111.517C143.922 112.516 144.178 113.314 144.258 113.905C144.353 114.495 144.398 115.035 144.398 115.504C144.398 116.864 142.25 117.991 137.943 118.91C133.637 119.83 131.278 120.407 128.089 120.644V127.548H195.068V120.644C193.299 120.522 191.317 120.232 189.14 119.75ZM128.051 73.8682H94.1335L110.969 31.1629L128.051 73.8682Z" fill="#5E81AC"/>
</g>
<mask id="mask1_232_199" style="mask-type:luminance" maskUnits="userSpaceOnUse" x="0" y="33" width="109" height="95">
<path d="M0.806152 33.2305H108.399V127.547H0.806152V33.2305Z" fill="white"/>
</mask>
<g mask="url(#mask1_232_199)">
<path d="M104.962 121.809C103.356 121.454 101.942 120.944 100.722 120.241C99.1168 119.281 97.8782 118.275 97.0068 117.215C96.1417 116.139 95.4266 114.958 94.8616 113.653C91.4747 105.647 87.3695 95.5561 82.5397 83.365C77.7227 71.1708 71.051 54.5937 62.5405 33.6113H49.5132C43.3905 48.4072 37.7914 61.9453 32.7285 74.2257C27.6657 86.4902 22.6124 98.7419 17.5783 110.974C16.7547 113.053 15.7205 114.866 14.4819 116.401C13.2433 117.924 11.7366 119.207 9.95535 120.241C8.9115 120.899 7.49097 121.407 5.68099 121.783C3.88059 122.147 2.25895 122.374 0.832031 122.46V127.548H38.7554V122.46C33.8522 122.026 30.3376 121.32 28.2339 120.34C26.1366 119.36 25.0736 118.179 25.0736 116.778C25.0736 116.347 25.1534 115.584 25.3067 114.495C25.4535 113.41 25.9355 111.651 26.7655 109.215C27.4167 107.345 28.186 105.203 29.083 102.809C29.3129 102.189 30.6728 98.7291 32.5338 93.9983H62.5342L71.3351 115.737C71.6351 116.468 71.8171 117.059 71.8841 117.496C71.9512 117.924 71.9895 118.32 71.9895 118.677C71.9895 119.676 70.3966 120.516 67.2267 121.193C64.0473 121.863 61.2924 122.294 58.9493 122.466V127.548H107.998V122.46C107.998 122.46 106.571 122.16 104.962 121.809ZM35.1865 87.2882C40.5111 73.8171 47.3552 56.5314 47.3552 56.5314L59.8208 87.2882H35.1865Z" fill="#5E81AC" fill-opacity="0.5"/>
</g>
</svg>
