<svg width="300" height="295" viewBox="0 0 300 295" fill="none" xmlns="http://www.w3.org/2000/svg">
<g filter="url(#filter0_d_215_206)">
<rect x="24" y="16" width="252" height="247" rx="8" fill="white"/>
</g>
<mask id="mask0_215_206" style="mask-type:luminance" maskUnits="userSpaceOnUse" x="99" y="76" width="149" height="128">
<path d="M99.1094 76.0645H247.097V203.548H99.1094V76.0645Z" fill="white"/>
</mask>
<g mask="url(#mask0_215_206)">
<path d="M241.14 195.75C238.963 195.281 237.048 194.569 235.4 193.63C233.217 192.334 231.535 190.952 230.357 189.515C229.172 188.06 228.208 186.464 227.436 184.679C222.836 173.816 217.269 160.122 210.725 143.583C204.174 127.044 195.121 104.539 183.565 76.0645H165.877C157.565 96.153 149.971 114.518 143.111 131.168C136.241 147.822 129.387 164.457 122.55 181.05C121.432 183.881 120.031 186.342 118.349 188.405C116.669 190.476 114.62 192.213 112.207 193.63C110.789 194.521 108.858 195.213 106.416 195.718C103.971 196.213 101.775 196.529 99.8242 196.65V203.548H151.302V196.644C144.64 196.053 139.87 195.099 137.017 193.758C134.15 192.436 132.723 190.818 132.723 188.934C132.723 188.344 132.825 187.31 133.039 185.825C133.234 184.357 133.901 181.963 135.028 178.662C135.912 176.118 136.956 173.219 138.169 169.973C139.101 167.483 139.944 165.296 140.748 163.288H185.564L195.514 187.517C195.922 188.516 196.178 189.314 196.258 189.905C196.353 190.495 196.398 191.035 196.398 191.504C196.398 192.864 194.25 193.991 189.943 194.91C185.637 195.83 183.278 196.407 180.089 196.644V203.548H247.068V196.644C245.299 196.522 243.317 196.232 241.14 195.75ZM180.051 149.868H146.134L162.969 107.163L180.051 149.868Z" fill="#1F1F1F"/>
</g>
<mask id="mask1_215_206" style="mask-type:luminance" maskUnits="userSpaceOnUse" x="52" y="109" width="109" height="95">
<path d="M52.8062 109.23H160.399V203.547H52.8062V109.23Z" fill="white"/>
</mask>
<g mask="url(#mask1_215_206)">
<path d="M156.962 197.809C155.356 197.454 153.942 196.944 152.722 196.241C151.117 195.281 149.878 194.275 149.007 193.215C148.142 192.139 147.427 190.958 146.862 189.653C143.475 181.647 139.37 171.556 134.54 159.365C129.723 147.171 123.051 130.594 114.541 109.611H101.513C95.3905 124.407 89.7914 137.945 84.7285 150.226C79.6657 162.49 74.6124 174.742 69.5783 186.974C68.7547 189.053 67.7205 190.866 66.4819 192.401C65.2433 193.924 63.7366 195.207 61.9554 196.241C60.9115 196.899 59.491 197.407 57.681 197.783C55.8806 198.147 54.2589 198.374 52.832 198.46V203.548H90.7554V198.46C85.8522 198.026 82.3376 197.32 80.2339 196.34C78.1366 195.36 77.0736 194.179 77.0736 192.778C77.0736 192.347 77.1534 191.584 77.3067 190.495C77.4535 189.41 77.9355 187.651 78.7655 185.215C79.4167 183.345 80.186 181.203 81.083 178.809C81.3129 178.189 82.6728 174.729 84.5338 169.998H114.534L123.335 191.737C123.635 192.468 123.817 193.059 123.884 193.496C123.951 193.924 123.989 194.32 123.989 194.677C123.989 195.676 122.397 196.516 119.227 197.193C116.047 197.863 113.292 198.294 110.949 198.466V203.548H159.998V198.46C159.998 198.46 158.571 198.16 156.962 197.809ZM87.1865 163.288C92.5111 149.817 99.3552 132.531 99.3552 132.531L111.821 163.288H87.1865Z" fill="#1F1F1F" fill-opacity="0.5"/>
</g>
<defs>
<filter id="filter0_d_215_206" x="0" y="0" width="300" height="295" filterUnits="userSpaceOnUse" color-interpolation-filters="sRGB">
<feFlood flood-opacity="0" result="BackgroundImageFix"/>
<feColorMatrix in="SourceAlpha" type="matrix" values="0 0 0 0 0 0 0 0 0 0 0 0 0 0 0 0 0 0 127 0" result="hardAlpha"/>
<feOffset dy="8"/>
<feGaussianBlur stdDeviation="12"/>
<feComposite in2="hardAlpha" operator="out"/>
<feColorMatrix type="matrix" values="0 0 0 0 0 0 0 0 0 0 0 0 0 0 0 0 0 0 0.1 0"/>
<feBlend mode="normal" in2="BackgroundImageFix" result="effect1_dropShadow_215_206"/>
<feBlend mode="normal" in="SourceGraphic" in2="effect1_dropShadow_215_206" result="shape"/>
</filter>
</defs>
</svg>
