<svg width="149" height="128" viewBox="0 0 149 128" fill="none" xmlns="http://www.w3.org/2000/svg">
<path d="M142.14 119.75C139.963 119.281 138.048 118.569 136.4 117.63C134.217 116.334 132.535 114.952 131.357 113.515C130.172 112.06 129.208 110.464 128.436 108.679C123.836 97.8161 118.269 84.1216 111.725 67.5828C105.174 51.044 96.1211 28.5389 84.5653 0.0644531H66.8773C58.5648 20.153 50.9706 38.5177 44.1105 55.1683C37.2409 71.822 30.3872 88.4566 23.5495 105.05C22.4323 107.881 21.0309 110.342 19.3486 112.405C17.6695 114.476 15.6201 116.213 13.2068 117.63C11.7894 118.521 9.85816 119.213 7.41612 119.718C4.97089 120.213 2.77466 120.529 0.824219 120.65V127.548H52.3017V120.644C45.6396 120.053 40.8704 119.099 38.0166 117.758C35.15 116.436 33.7231 114.818 33.7231 112.934C33.7231 112.344 33.8252 111.31 34.0391 109.825C34.2338 108.357 34.901 105.963 36.0279 102.662C36.9121 100.118 37.9559 97.2192 39.169 93.9727C40.1011 91.4828 40.9438 89.2961 41.7483 87.2882H86.5636L96.5137 111.517C96.9223 112.516 97.1777 113.314 97.2575 113.905C97.3533 114.495 97.398 115.035 97.398 115.504C97.398 116.864 95.2496 117.991 90.9433 118.91C86.6371 119.83 84.278 120.407 81.089 120.644V127.548H148.068V120.644C146.299 120.522 144.317 120.232 142.14 119.75ZM81.0507 73.8682H47.1335L63.9692 31.1629L81.0507 73.8682Z" fill="#5E81AC"/>
</svg>
