<svg width="200" height="200" viewBox="0 0 200 200" fill="none" xmlns="http://www.w3.org/2000/svg">
<path d="M54.125 46.1406H144.516L145.375 73.3281H141.547C139.672 64.7865 137.276 59.2396 134.359 56.6875C131.495 54.0833 125.427 52.7812 116.156 52.7812H107.25V134.656C107.25 140.854 108.214 144.708 110.141 146.219C112.068 147.677 116.286 148.641 122.797 149.109V152H76.1562V149.109C82.9271 148.589 87.1458 147.469 88.8125 145.75C90.4792 144.031 91.3125 139.708 91.3125 132.781V52.7812H82.4062C73.5521 52.7812 67.5104 54.0573 64.2812 56.6094C61.1042 59.1615 58.7083 64.7344 57.0938 73.3281H53.1875L54.125 46.1406Z" fill="#5E81AC"/>
</svg>
