<svg width="200" height="200" viewBox="0 0 200 200" fill="none" xmlns="http://www.w3.org/2000/svg">
<g clip-path="url(#clip0_235_215)">
<path d="M34.1895 22.8271H164.126L165.361 61.9092H159.858C157.163 49.6305 153.719 41.6569 149.526 37.9883C145.409 34.2448 136.686 32.373 123.359 32.373H110.557V150.068C110.557 158.978 111.942 164.518 114.712 166.689C117.482 168.786 123.547 170.171 132.905 170.845V175H65.8594V170.845C75.5924 170.096 81.6569 168.486 84.0527 166.016C86.4486 163.545 87.6465 157.331 87.6465 147.373V32.373H74.8438C62.1159 32.373 53.431 34.2074 48.7891 37.876C44.222 41.5446 40.778 49.5557 38.457 61.9092H32.8418L34.1895 22.8271Z" fill="#5E81AC"/>
</g>
<defs>
<clipPath id="clip0_235_215">
<rect width="200" height="200" fill="white"/>
</clipPath>
</defs>
</svg>
