<svg width="282" height="277" viewBox="0 0 282 277" fill="none" xmlns="http://www.w3.org/2000/svg">
<g filter="url(#filter0_d_215_206)">
<rect x="11" y="11" width="252" height="247" rx="8" fill="white"/>
</g>
<mask id="mask0_215_206" style="mask-type:luminance" maskUnits="userSpaceOnUse" x="86" y="71" width="149" height="128">
<path d="M86.1094 71.0645H234.097V198.548H86.1094V71.0645Z" fill="white"/>
</mask>
<g mask="url(#mask0_215_206)">
<path d="M228.14 190.75C225.963 190.281 224.048 189.569 222.4 188.63C220.217 187.334 218.535 185.952 217.357 184.515C216.172 183.06 215.208 181.464 214.436 179.679C209.836 168.816 204.269 155.122 197.725 138.583C191.174 122.044 182.121 99.5389 170.565 71.0645H152.877C144.565 91.153 136.971 109.518 130.111 126.168C123.241 142.822 116.387 159.457 109.55 176.05C108.432 178.881 107.031 181.342 105.349 183.405C103.669 185.476 101.62 187.213 99.2068 188.63C97.7894 189.521 95.8582 190.213 93.4161 190.718C90.9709 191.213 88.7747 191.529 86.8242 191.65V198.548H138.302V191.644C131.64 191.053 126.87 190.099 124.017 188.758C121.15 187.436 119.723 185.818 119.723 183.934C119.723 183.344 119.825 182.31 120.039 180.825C120.234 179.357 120.901 176.963 122.028 173.662C122.912 171.118 123.956 168.219 125.169 164.973C126.101 162.483 126.944 160.296 127.748 158.288H172.564L182.514 182.517C182.922 183.516 183.178 184.314 183.258 184.905C183.353 185.495 183.398 186.035 183.398 186.504C183.398 187.864 181.25 188.991 176.943 189.91C172.637 190.83 170.278 191.407 167.089 191.644V198.548H234.068V191.644C232.299 191.522 230.317 191.232 228.14 190.75ZM167.051 144.868H133.134L149.969 102.163L167.051 144.868Z" fill="black"/>
</g>
<mask id="mask1_215_206" style="mask-type:luminance" maskUnits="userSpaceOnUse" x="39" y="104" width="109" height="95">
<path d="M39.8062 104.23H147.399V198.547H39.8062V104.23Z" fill="white"/>
</mask>
<g mask="url(#mask1_215_206)">
<path d="M143.962 192.809C142.356 192.454 140.942 191.944 139.722 191.241C138.117 190.281 136.878 189.275 136.007 188.215C135.142 187.139 134.427 185.958 133.862 184.653C130.475 176.647 126.37 166.556 121.54 154.365C116.723 142.171 110.051 125.594 101.541 104.611H88.5132C82.3905 119.407 76.7914 132.945 71.7285 145.226C66.6657 157.49 61.6124 169.742 56.5783 181.974C55.7547 184.053 54.7205 185.866 53.4819 187.401C52.2433 188.924 50.7366 190.207 48.9554 191.241C47.9115 191.899 46.491 192.407 44.681 192.783C42.8806 193.147 41.2589 193.374 39.832 193.46V198.548H77.7554V193.46C72.8522 193.026 69.3376 192.32 67.2339 191.34C65.1366 190.36 64.0736 189.179 64.0736 187.778C64.0736 187.347 64.1534 186.584 64.3067 185.495C64.4535 184.41 64.9355 182.651 65.7655 180.215C66.4167 178.345 67.186 176.203 68.083 173.809C68.3129 173.189 69.6728 169.729 71.5338 164.998H101.534L110.335 186.737C110.635 187.468 110.817 188.059 110.884 188.496C110.951 188.924 110.989 189.32 110.989 189.677C110.989 190.676 109.397 191.516 106.227 192.193C103.047 192.863 100.292 193.294 97.9493 193.466V198.548H146.998V193.46C146.998 193.46 145.571 193.16 143.962 192.809ZM74.1865 158.288C79.5111 144.817 86.3552 127.531 86.3552 127.531L98.8208 158.288H74.1865Z" fill="#EDEFF5"/>
</g>
<defs>
<filter id="filter0_d_215_206" x="0" y="0" width="282" height="277" filterUnits="userSpaceOnUse" color-interpolation-filters="sRGB">
<feFlood flood-opacity="0" result="BackgroundImageFix"/>
<feColorMatrix in="SourceAlpha" type="matrix" values="0 0 0 0 0 0 0 0 0 0 0 0 0 0 0 0 0 0 127 0" result="hardAlpha"/>
<feOffset dx="4" dy="4"/>
<feGaussianBlur stdDeviation="7.5"/>
<feComposite in2="hardAlpha" operator="out"/>
<feColorMatrix type="matrix" values="0 0 0 0 0 0 0 0 0 0 0 0 0 0 0 0 0 0 0.25 0"/>
<feBlend mode="normal" in2="BackgroundImageFix" result="effect1_dropShadow_215_206"/>
<feBlend mode="normal" in="SourceGraphic" in2="effect1_dropShadow_215_206" result="shape"/>
</filter>
</defs>
</svg>
